<svg xmlns="http://www.w3.org/2000/svg" version="1.1" xmlns:xlink="http://www.w3.org/1999/xlink" xmlns:svgjs="http://svgjs.com/svgjs" width="60" height="70" preserveAspectRatio="none" viewBox="0 0 60 70"><g mask="url(&quot;#SvgjsMask1091&quot;)" fill="none"><path d="M30 79.64C41.76 78.89 52.71 74.37 61.38 66.38 70.46 58.02 78.82 47.34 78.31 35 77.8 22.93 67.77 14.29 58.87 6.13 50.5-1.52 41.32-8.69 30-9.17 18.24-9.68 7.15-4.47-1.45 3.55-10.39 11.88-16.65 22.83-17.4 35-18.18 47.95-14.98 61.62-5.53 70.53 3.72 79.23 17.32 80.42 30 79.64" fill="#1c538e"></path><path d="M30 63.89C37.61 63.4 44.7 60.48 50.31 55.31 56.18 49.89 61.59 42.99 61.26 35 60.93 27.19 54.44 21.6 48.68 16.32 43.27 11.37 37.33 6.73 30 6.42 22.39 6.09 15.22 9.46 9.65 14.65 3.86 20.04-0.18 27.12-0.67 35-1.17 43.38 0.89 52.23 7.01 57.99 12.99 63.62 21.79 64.39 30 63.89" fill="#2774c6"></path><path d="M30 48.13C33.46 47.91 36.68 46.58 39.23 44.23 41.9 41.77 44.36 38.63 44.21 35 44.06 31.45 41.11 28.91 38.49 26.51 36.03 24.26 33.33 22.15 30 22.01 26.54 21.86 23.28 23.39 20.75 25.75 18.12 28.2 16.28 31.42 16.06 35 15.83 38.81 16.77 42.83 19.55 45.45 22.27 48.01 26.27 48.36 30 48.13" fill="#488fdb"></path></g><defs><mask id="SvgjsMask1091"><rect width="60" height="70" fill="#ffffff"></rect></mask></defs></svg>